<svg version="1.2" xmlns="http://www.w3.org/2000/svg" viewBox="0 0 128 128" width="128" height="128">
	<style>
		.s0 { fill: #fe9677 } 
	</style>
	<g id="layer1">
		<path id="rect2986" class="s0" d="m63.75 3.5l-63.75 56.41 6.72 7.56 57.31-50.69 57.28 50.69 6.69-7.56-63.75-56.41-0.22 0.28zm-44.69 8.13v24.03l16.03-14.47 0.13-9.56zm44.97 13.62l-44.97 39.78v56.81c0 1.47 1.19 2.66 2.66 2.66h28.09v-24.91c0-1.46 1.19-2.65 2.66-2.65h23.06c1.47 0 2.65 1.19 2.65 2.65v24.91h28.1c1.47 0 2.65-1.19 2.65-2.66v-56.84z"/>
	</g>
</svg>